<svg width="140" height="41" viewBox="0 0 140 41" fill="none" xmlns="http://www.w3.org/2000/svg">
<path d="M8.93555 5.58398C10.8789 5.58398 12.4805 5.81836 13.7402 6.28711C15.0098 6.75586 15.9521 7.46387 16.5674 8.41113C17.1826 9.3584 17.4902 10.5547 17.4902 12C17.4902 12.9766 17.3047 13.8311 16.9336 14.5635C16.5625 15.2959 16.0742 15.916 15.4688 16.4238C14.8633 16.9316 14.209 17.3467 13.5059 17.6689L19.8047 27H14.7656L9.65332 18.7822H7.23633V27H2.69531V5.58398H8.93555ZM8.61328 9.30469H7.23633V15.0908H8.70117C10.2051 15.0908 11.2793 14.8418 11.9238 14.3438C12.5781 13.8359 12.9053 13.0938 12.9053 12.1172C12.9053 11.1016 12.5537 10.3789 11.8506 9.94922C11.1572 9.51953 10.0781 9.30469 8.61328 9.30469ZM48.8086 5.58398L43.3594 27H38.1885L35.2881 15.75C35.2295 15.5352 35.1514 15.208 35.0537 14.7686C34.9561 14.3291 34.8535 13.8506 34.7461 13.333C34.6387 12.8057 34.541 12.3125 34.4531 11.8535C34.375 11.3848 34.3213 11.0137 34.292 10.7402C34.2627 11.0137 34.2041 11.3799 34.1162 11.8389C34.0381 12.2979 33.9453 12.7861 33.8379 13.3037C33.7402 13.8213 33.6426 14.3047 33.5449 14.7539C33.4473 15.2031 33.3691 15.5449 33.3105 15.7793L30.4248 27H25.2686L19.8047 5.58398H24.2725L27.0117 17.2734C27.0898 17.625 27.1777 18.0449 27.2754 18.5332C27.3828 19.0215 27.4854 19.5342 27.583 20.0713C27.6904 20.5986 27.7832 21.1113 27.8613 21.6094C27.9492 22.0977 28.0127 22.5225 28.0518 22.8838C28.1006 22.5127 28.1641 22.083 28.2422 21.5947C28.3203 21.0967 28.4033 20.5938 28.4912 20.0859C28.5889 19.5684 28.6865 19.0898 28.7842 18.6504C28.8818 18.2109 28.9697 17.8545 29.0479 17.5811L32.168 5.58398H36.46L39.5801 17.5811C39.6484 17.8447 39.7266 18.2012 39.8145 18.6504C39.9121 19.0898 40.0098 19.5684 40.1074 20.0859C40.2051 20.6035 40.293 21.1113 40.3711 21.6094C40.459 22.0977 40.5225 22.5225 40.5615 22.8838C40.6299 22.3955 40.7227 21.8047 40.8398 21.1113C40.9668 20.4082 41.0986 19.71 41.2354 19.0166C41.3818 18.3232 41.5088 17.7422 41.6162 17.2734L44.3408 5.58398H48.8086ZM63.8379 27H51.5039V5.58398H63.8379V9.30469H56.0449V14.0068H63.2959V17.7275H56.0449V23.25H63.8379V27Z" fill="#F9F9F9"/>
<path d="M55.2412 39.207C55.4281 39.207 55.6195 39.1911 55.8154 39.1592C56.0114 39.1273 56.1709 39.0885 56.2939 39.043V39.9248C56.1618 39.984 55.9772 40.0342 55.7402 40.0752C55.5078 40.1162 55.2799 40.1367 55.0566 40.1367C54.6602 40.1367 54.3001 40.0684 53.9766 39.9316C53.653 39.7904 53.3932 39.5534 53.1973 39.2207C53.0059 38.888 52.9102 38.4277 52.9102 37.8398V33.3965H51.8438V32.8428L52.917 32.3984L53.3682 30.7715H54.0518V32.5078H56.2461V33.3965H54.0518V37.8057C54.0518 38.2751 54.1589 38.626 54.373 38.8584C54.5918 39.0908 54.8812 39.207 55.2412 39.207ZM60.6963 32.3711C61.3343 32.3711 61.8812 32.5124 62.3369 32.7949C62.7926 33.0775 63.1413 33.474 63.3828 33.9844C63.6243 34.4902 63.7451 35.0827 63.7451 35.7617V36.4658H58.5703C58.584 37.3454 58.8027 38.0153 59.2266 38.4756C59.6504 38.9359 60.2474 39.166 61.0176 39.166C61.4915 39.166 61.9108 39.1227 62.2754 39.0361C62.64 38.9495 63.0182 38.8219 63.4102 38.6533V39.6514C63.0319 39.82 62.6559 39.943 62.2822 40.0205C61.9131 40.098 61.4756 40.1367 60.9697 40.1367C60.2497 40.1367 59.6208 39.9909 59.083 39.6992C58.5498 39.403 58.1351 38.9701 57.8389 38.4004C57.5426 37.8307 57.3945 37.1335 57.3945 36.3086C57.3945 35.502 57.529 34.8047 57.7979 34.2168C58.0713 33.6243 58.4541 33.1686 58.9463 32.8496C59.443 32.5306 60.0264 32.3711 60.6963 32.3711ZM60.6826 33.3008C60.0765 33.3008 59.5934 33.499 59.2334 33.8955C58.8734 34.292 58.6592 34.8457 58.5908 35.5566H62.5557C62.5511 35.11 62.4805 34.7181 62.3438 34.3809C62.2116 34.0391 62.0088 33.7747 61.7354 33.5879C61.4619 33.3965 61.111 33.3008 60.6826 33.3008ZM66.8145 40H65.6729V29.3633H66.8145V40ZM72.0986 32.3711C72.7367 32.3711 73.2835 32.5124 73.7393 32.7949C74.195 33.0775 74.5436 33.474 74.7852 33.9844C75.0267 34.4902 75.1475 35.0827 75.1475 35.7617V36.4658H69.9727C69.9863 37.3454 70.2051 38.0153 70.6289 38.4756C71.0527 38.9359 71.6497 39.166 72.4199 39.166C72.8939 39.166 73.3132 39.1227 73.6777 39.0361C74.0423 38.9495 74.4206 38.8219 74.8125 38.6533V39.6514C74.4342 39.82 74.0583 39.943 73.6846 40.0205C73.3154 40.098 72.8779 40.1367 72.3721 40.1367C71.652 40.1367 71.0231 39.9909 70.4854 39.6992C69.9521 39.403 69.5374 38.9701 69.2412 38.4004C68.945 37.8307 68.7969 37.1335 68.7969 36.3086C68.7969 35.502 68.9313 34.8047 69.2002 34.2168C69.4736 33.6243 69.8564 33.1686 70.3486 32.8496C70.8454 32.5306 71.4287 32.3711 72.0986 32.3711ZM72.085 33.3008C71.4788 33.3008 70.9958 33.499 70.6357 33.8955C70.2757 34.292 70.0615 34.8457 69.9932 35.5566H73.958C73.9535 35.11 73.8828 34.7181 73.7461 34.3809C73.6139 34.0391 73.4111 33.7747 73.1377 33.5879C72.8643 33.3965 72.5133 33.3008 72.085 33.3008ZM85.21 32.3711C86.0348 32.3711 86.6569 32.5876 87.0762 33.0205C87.4954 33.4489 87.7051 34.1393 87.7051 35.0918V40H86.584V35.1465C86.584 34.5404 86.4518 34.0869 86.1875 33.7861C85.9277 33.4808 85.5404 33.3281 85.0254 33.3281C84.3008 33.3281 83.7744 33.5378 83.4463 33.957C83.1182 34.3763 82.9541 34.9938 82.9541 35.8096V40H81.8262V35.1465C81.8262 34.7409 81.7669 34.4036 81.6484 34.1348C81.5345 33.8659 81.3613 33.6654 81.1289 33.5332C80.901 33.3965 80.6117 33.3281 80.2607 33.3281C79.764 33.3281 79.3652 33.4307 79.0645 33.6357C78.7637 33.8408 78.5449 34.1462 78.4082 34.5518C78.276 34.9528 78.21 35.4473 78.21 36.0352V40H77.0752V32.5078H77.9912L78.1621 33.5674H78.2236C78.374 33.3076 78.5632 33.0889 78.791 32.9111C79.0189 32.7334 79.2741 32.599 79.5566 32.5078C79.8392 32.4167 80.14 32.3711 80.459 32.3711C81.0286 32.3711 81.5049 32.4782 81.8877 32.6924C82.2751 32.902 82.5553 33.2233 82.7285 33.6562H82.79C83.0361 33.2233 83.3734 32.902 83.8018 32.6924C84.2301 32.4782 84.6995 32.3711 85.21 32.3711ZM92.9209 32.3711C93.5589 32.3711 94.1058 32.5124 94.5615 32.7949C95.0173 33.0775 95.3659 33.474 95.6074 33.9844C95.849 34.4902 95.9697 35.0827 95.9697 35.7617V36.4658H90.7949C90.8086 37.3454 91.0273 38.0153 91.4512 38.4756C91.875 38.9359 92.472 39.166 93.2422 39.166C93.7161 39.166 94.1354 39.1227 94.5 39.0361C94.8646 38.9495 95.2428 38.8219 95.6348 38.6533V39.6514C95.2565 39.82 94.8805 39.943 94.5068 40.0205C94.1377 40.098 93.7002 40.1367 93.1943 40.1367C92.4743 40.1367 91.8454 39.9909 91.3076 39.6992C90.7744 39.403 90.3597 38.9701 90.0635 38.4004C89.7673 37.8307 89.6191 37.1335 89.6191 36.3086C89.6191 35.502 89.7536 34.8047 90.0225 34.2168C90.2959 33.6243 90.6787 33.1686 91.1709 32.8496C91.6676 32.5306 92.251 32.3711 92.9209 32.3711ZM92.9072 33.3008C92.3011 33.3008 91.818 33.499 91.458 33.8955C91.098 34.292 90.8838 34.8457 90.8154 35.5566H94.7803C94.7757 35.11 94.7051 34.7181 94.5684 34.3809C94.4362 34.0391 94.2334 33.7747 93.96 33.5879C93.6865 33.3965 93.3356 33.3008 92.9072 33.3008ZM100.563 40.1367C99.6156 40.1367 98.8636 39.8132 98.3076 39.166C97.7562 38.5189 97.4805 37.5573 97.4805 36.2812C97.4805 34.9915 97.763 34.0186 98.3281 33.3623C98.8932 32.7015 99.6452 32.3711 100.584 32.3711C100.98 32.3711 101.327 32.4235 101.623 32.5283C101.919 32.6331 102.174 32.7744 102.389 32.9521C102.603 33.1253 102.783 33.3236 102.929 33.5469H103.011C102.993 33.4056 102.974 33.2119 102.956 32.9658C102.938 32.7197 102.929 32.5192 102.929 32.3643V29.3633H104.063V40H103.147L102.977 38.9336H102.929C102.787 39.1569 102.607 39.3597 102.389 39.542C102.174 39.7243 101.917 39.8701 101.616 39.9795C101.32 40.0843 100.969 40.1367 100.563 40.1367ZM100.741 39.1934C101.543 39.1934 102.111 38.9655 102.443 38.5098C102.776 38.054 102.942 37.3773 102.942 36.4795V36.2744C102.942 35.3219 102.783 34.5905 102.464 34.0801C102.149 33.5697 101.575 33.3145 100.741 33.3145C100.044 33.3145 99.5221 33.5833 99.1758 34.1211C98.8294 34.6543 98.6562 35.3835 98.6562 36.3086C98.6562 37.2292 98.8271 37.9401 99.1689 38.4414C99.5153 38.9427 100.039 39.1934 100.741 39.1934ZM107.604 32.5078V40H106.47V32.5078H107.604ZM107.051 29.7051C107.238 29.7051 107.397 29.7666 107.529 29.8896C107.666 30.0081 107.734 30.195 107.734 30.4502C107.734 30.7008 107.666 30.8877 107.529 31.0107C107.397 31.1338 107.238 31.1953 107.051 31.1953C106.855 31.1953 106.691 31.1338 106.559 31.0107C106.431 30.8877 106.367 30.7008 106.367 30.4502C106.367 30.195 106.431 30.0081 106.559 29.8896C106.691 29.7666 106.855 29.7051 107.051 29.7051ZM113.012 40.1367C112.337 40.1367 111.743 39.9977 111.228 39.7197C110.713 39.4417 110.312 39.0179 110.024 38.4482C109.737 37.8786 109.594 37.1608 109.594 36.2949C109.594 35.388 109.744 34.6475 110.045 34.0732C110.35 33.4945 110.77 33.0661 111.303 32.7881C111.836 32.5101 112.442 32.3711 113.121 32.3711C113.495 32.3711 113.855 32.4098 114.201 32.4873C114.552 32.5602 114.839 32.6536 115.062 32.7676L114.721 33.7178C114.493 33.6266 114.229 33.5446 113.928 33.4717C113.632 33.3988 113.354 33.3623 113.094 33.3623C112.574 33.3623 112.141 33.474 111.795 33.6973C111.453 33.9206 111.196 34.2487 111.022 34.6816C110.854 35.1146 110.77 35.6478 110.77 36.2812C110.77 36.8874 110.852 37.4046 111.016 37.833C111.184 38.2614 111.433 38.5895 111.761 38.8174C112.093 39.0407 112.508 39.1523 113.005 39.1523C113.401 39.1523 113.759 39.1113 114.078 39.0293C114.397 38.9427 114.687 38.8424 114.946 38.7285V39.7402C114.696 39.8678 114.415 39.9658 114.105 40.0342C113.8 40.1025 113.436 40.1367 113.012 40.1367ZM117.858 32.5078V40H116.724V32.5078H117.858ZM117.305 29.7051C117.492 29.7051 117.651 29.7666 117.783 29.8896C117.92 30.0081 117.988 30.195 117.988 30.4502C117.988 30.7008 117.92 30.8877 117.783 31.0107C117.651 31.1338 117.492 31.1953 117.305 31.1953C117.109 31.1953 116.945 31.1338 116.812 31.0107C116.685 30.8877 116.621 30.7008 116.621 30.4502C116.621 30.195 116.685 30.0081 116.812 29.8896C116.945 29.7666 117.109 29.7051 117.305 29.7051ZM123.812 32.3711C124.701 32.3711 125.373 32.5898 125.829 33.0273C126.285 33.4603 126.513 34.1576 126.513 35.1191V40H125.392V35.1943C125.392 34.57 125.248 34.1029 124.961 33.793C124.678 33.4831 124.243 33.3281 123.655 33.3281C122.826 33.3281 122.243 33.5628 121.905 34.0322C121.568 34.5016 121.399 35.1829 121.399 36.0762V40H120.265V32.5078H121.181L121.352 33.5879H121.413C121.573 33.3236 121.775 33.1025 122.021 32.9248C122.268 32.7425 122.543 32.6058 122.849 32.5146C123.154 32.4189 123.475 32.3711 123.812 32.3711ZM131.653 32.3848C132.547 32.3848 133.21 32.5853 133.643 32.9863C134.076 33.3874 134.292 34.0277 134.292 34.9072V40H133.465L133.246 38.8926H133.191C132.982 39.166 132.763 39.3962 132.535 39.583C132.307 39.7653 132.043 39.9043 131.742 40C131.446 40.0911 131.081 40.1367 130.648 40.1367C130.193 40.1367 129.787 40.057 129.432 39.8975C129.081 39.738 128.803 39.4964 128.598 39.1729C128.397 38.8493 128.297 38.4391 128.297 37.9424C128.297 37.195 128.593 36.6208 129.186 36.2197C129.778 35.8187 130.68 35.5999 131.893 35.5635L133.185 35.5088V35.0508C133.185 34.4036 133.046 33.9502 132.768 33.6904C132.49 33.4307 132.098 33.3008 131.592 33.3008C131.2 33.3008 130.826 33.3577 130.471 33.4717C130.115 33.5856 129.778 33.7201 129.459 33.875L129.11 33.0137C129.448 32.8405 129.835 32.6924 130.272 32.5693C130.71 32.4463 131.17 32.3848 131.653 32.3848ZM133.171 36.3086L132.029 36.3564C131.095 36.3929 130.437 36.5456 130.054 36.8145C129.671 37.0833 129.479 37.4639 129.479 37.9561C129.479 38.3844 129.609 38.7012 129.869 38.9062C130.129 39.1113 130.473 39.2139 130.901 39.2139C131.567 39.2139 132.111 39.0293 132.535 38.6602C132.959 38.291 133.171 37.7373 133.171 36.999V36.3086Z" fill="#F9F9F9"/>
<rect x="2.625" y="29" width="44" height="12" fill="#F9F9F9"/>
</svg>
