<svg width="40" height="40" viewBox="0 0 40 40" fill="#32495e" xmlns="http://www.w3.org/2000/svg">
<path d="M15.5556 33.3333C11.2222 33.3333 7.5463 31.8241 4.52778 28.8056C1.50926 25.787 0 22.1111 0 17.7778V4.44444C0 3.22222 0.435185 2.17593 1.30556 1.30556C2.17593 0.435185 3.22222 0 4.44444 0H32.2222C34.3704 0 36.2037 0.759259 37.7222 2.27778C39.2407 3.7963 40 5.62963 40 7.77778C40 9.92593 39.2407 11.7593 37.7222 13.2778C36.2037 14.7963 34.3704 15.5556 32.2222 15.5556H31.1111V17.7778C31.1111 22.1111 29.6019 25.787 26.5833 28.8056C23.5648 31.8241 19.8889 33.3333 15.5556 33.3333ZM4.44444 11.1111H26.6667V4.44444H4.44444V11.1111ZM15.5556 28.8889C18.6296 28.8889 21.25 27.8056 23.4167 25.6389C25.5833 23.4722 26.6667 20.8519 26.6667 17.7778V15.5556H4.44444V17.7778C4.44444 20.8519 5.52778 23.4722 7.69444 25.6389C9.86111 27.8056 12.4815 28.8889 15.5556 28.8889ZM31.1111 11.1111H32.2222C33.1481 11.1111 33.9352 10.787 34.5833 10.1389C35.2315 9.49074 35.5556 8.7037 35.5556 7.77778C35.5556 6.85185 35.2315 6.06482 34.5833 5.41667C33.9352 4.76852 33.1481 4.44444 32.2222 4.44444H31.1111V11.1111ZM0 40V35.5556H35.5556V40H0Z" fill="#32495e"/>
</svg>
