<svg width="40" height="44" viewBox="0 0 40 44" fill="#32495e" xmlns="http://www.w3.org/2000/svg">
<path d="M27.9 39.3L30.2 37L27 33.8L24.7 36.1C24.2333 36.5667 24 37.1 24 37.7C24 38.3 24.2333 38.8333 24.7 39.3C25.1667 39.7667 25.7 40 26.3 40C26.9 40 27.4333 39.7667 27.9 39.3ZM33 34.2L35.3 31.9C35.7667 31.4333 36 30.9 36 30.3C36 29.7 35.7667 29.1667 35.3 28.7C34.8333 28.2333 34.3 28 33.7 28C33.1 28 32.5667 28.2333 32.1 28.7L29.8 31L33 34.2ZM30.75 42.15C29.5167 43.3833 28.0333 44 26.3 44C24.5667 44 23.0833 43.3833 21.85 42.15C20.6167 40.9167 20 39.4333 20 37.7C20 35.9667 20.6167 34.4833 21.85 33.25L29.25 25.85C30.4833 24.6167 31.9667 24 33.7 24C35.4333 24 36.9167 24.6167 38.15 25.85C39.3833 27.0833 40 28.5667 40 30.3C40 32.0333 39.3833 33.5167 38.15 34.75L30.75 42.15ZM4 40C2.9 40 1.95833 39.6083 1.175 38.825C0.391667 38.0417 0 37.1 0 36V8C0 6.9 0.391667 5.95833 1.175 5.175C1.95833 4.39167 2.9 4 4 4H12.4C12.8333 2.8 13.5583 1.83333 14.575 1.1C15.5917 0.366667 16.7333 0 18 0C19.2667 0 20.4083 0.366667 21.425 1.1C22.4417 1.83333 23.1667 2.8 23.6 4H32C33.1 4 34.0417 4.39167 34.825 5.175C35.6083 5.95833 36 6.9 36 8V20.25C35.3333 20.0833 34.6667 20 34 20C33.3333 20 32.6667 20.05 32 20.15V8H4V36H16.15C16.05 36.6667 16 37.3333 16 38C16 38.6667 16.0833 39.3333 16.25 40H4ZM18 6.5C18.4333 6.5 18.7917 6.35833 19.075 6.075C19.3583 5.79167 19.5 5.43333 19.5 5C19.5 4.56667 19.3583 4.20833 19.075 3.925C18.7917 3.64167 18.4333 3.5 18 3.5C17.5667 3.5 17.2083 3.64167 16.925 3.925C16.6417 4.20833 16.5 4.56667 16.5 5C16.5 5.43333 16.6417 5.79167 16.925 6.075C17.2083 6.35833 17.5667 6.5 18 6.5ZM8 16V12H28V16H8ZM8 24V20H28V21.7C27.7333 21.8667 27.475 22.0583 27.225 22.275C26.975 22.4917 26.7167 22.7333 26.45 23L25.45 24H8ZM8 32V28H21.45L19 30.45C18.7333 30.7167 18.4917 30.975 18.275 31.225C18.0583 31.475 17.8667 31.7333 17.7 32H8Z" fill="#32495e"/>
</svg>
